<?xml version="1.0" standalone="no"?>
<svg xmlns="http://www.w3.org/2000/svg" viewBox="0 0 92.928 29" width="92.928" height="29"><g fill="#403e3e" color="#403e3e" transform="translate(0, 0) scale(0.659091)"><svg width="44.0" height="44.0" x="0.0" y="0.0" viewBox="0 0 44 44"><path fill="currentColor" fill-rule="evenodd" d="M21.973 29.756l14.787 8.535-9.168 5.28-5.605-3.224-5.563 3.225-9.182-5.281 14.73-8.535zm0-15.005L44 27.454v6.492l-3.52 2.07-18.506-10.675L3.525 36.016l-3.52-2.042v-6.52L21.973 14.75zM21.97 0l22.026 12.689v10.576L21.984 10.591 0 23.294V12.703L21.97 0z"></path></svg></g><line x1="41" y1="2%" x2="41" y2="98%" stroke="#403e3e" stroke-linecap="round"></line><path fill="#403e3e" fill-rule="nonzero" d="M0 9.19L0 9.19L0 7.08Q0 3.74 1.75 1.87Q3.50 0 6.60 0Q9.70 0 11.57 1.87L11.57 1.87Q12.89 3.19 12.89 5.83L12.89 5.83L9.77 5.83Q9.77 2.98 6.72 2.98L6.72 2.98Q5.81 2.98 5.17 3.32Q4.54 3.67 4.22 4.13Q3.91 4.58 3.74 5.47Q3.58 6.36 3.55 6.96Q3.53 7.56 3.53 8.57Q3.53 9.58 3.54 9.92Q3.55 10.27 3.61 11.05Q3.67 11.83 3.80 12.17Q3.94 12.50 4.19 13.03Q4.44 13.56 4.82 13.78L4.82 13.78Q5.81 14.40 7.06 14.40L7.06 14.40Q9.14 14.40 10.01 12.62L10.01 12.62L10.01 11.47L7.94 11.47L7.94 8.69L12.86 8.69L12.86 13.85Q12.12 15.60 10.51 16.49Q8.90 17.38 6.86 17.38L6.86 17.38Q3.24 17.38 1.62 15.35Q0 13.32 0 9.19ZM26.74 8.04L26.74 17.23L23.62 17.23L23.62 8.47Q23.62 7.30 23.14 6.86Q22.66 6.43 21.79 6.43L21.79 6.43L18.98 7.61L18.98 17.23L15.86 17.23L15.86 3.53L18.19 3.53L18.91 5.16L22.75 3.38Q24.36 3.38 25.55 4.57Q26.74 5.76 26.74 8.04L26.74 8.04ZM29.04 9.19L29.04 9.19L29.04 7.08Q29.04 3.74 30.79 1.87Q32.54 0 35.64 0Q38.74 0 40.61 1.87L40.61 1.87Q41.93 3.19 41.93 5.83L41.93 5.83L38.81 5.83Q38.81 2.98 35.76 2.98L35.76 2.98Q34.85 2.98 34.21 3.32Q33.58 3.67 33.26 4.13Q32.95 4.58 32.78 5.47Q32.62 6.36 32.59 6.96Q32.57 7.56 32.57 8.57Q32.57 9.58 32.58 9.92Q32.59 10.27 32.65 11.05Q32.71 11.83 32.84 12.17Q32.98 12.50 33.23 13.03Q33.48 13.56 33.86 13.78L33.86 13.78Q34.85 14.40 36.10 14.40L36.10 14.40Q38.18 14.40 39.05 12.62L39.05 12.62L39.05 11.47L36.98 11.47L36.98 8.69L41.90 8.69L41.90 13.85Q41.16 15.60 39.55 16.49Q37.94 17.38 35.90 17.38L35.90 17.38Q32.28 17.38 30.66 15.35Q29.04 13.32 29.04 9.19Z" transform="translate(51, 5.813)"></path></svg>